<svg width="2468" height="2815" viewBox="0 0 2468 2815" fill="none" xmlns="http://www.w3.org/2000/svg">
<circle cx="1234" cy="1391.83" r="1139.5" fill="#044542" stroke="#003331" stroke-width="35"/>
<g filter="url(#filter0_d_2025_41)">
<path d="M495.398 1973.44L1107.13 1640.88C1170.43 1606.47 1247.5 1652.3 1247.5 1724.35V1969.44L1345.77 2198.9C1359.48 2230.9 1397.46 2244.56 1428.41 2228.62L1923.69 1973.44L1393.98 2314.97C1330.77 2355.73 1247.5 2310.35 1247.5 2235.13V1969.44L1170.06 1788.61C1157.53 1759.35 1124.33 1744.97 1094.42 1755.84L495.398 1973.44Z" fill="#FFA61C"/>
<path d="M495.398 1973.44L1107.13 1640.88C1170.43 1606.47 1247.5 1652.3 1247.5 1724.35V2235.13C1247.5 2310.35 1330.77 2355.73 1393.98 2314.97L1923.69 1973.44L1428.41 2228.62C1397.46 2244.56 1359.48 2230.9 1345.77 2198.9L1170.06 1788.61C1157.53 1759.35 1124.33 1744.97 1094.42 1755.84L495.398 1973.44Z" stroke="#003331" stroke-width="4"/>
</g>
<g filter="url(#filter1_d_2025_41)">
<path d="M419.926 746.982C547.689 696.253 734.769 745.845 1193.73 636.571C1215.59 631.367 1237.64 644.964 1239.31 667.371C1244.26 733.526 1233.66 810.29 1233.66 810.29C1233.66 810.29 1716.75 694.535 2033.9 749.488C2047.96 751.923 2059.24 761.778 2063.37 775.431C2166.68 1117.28 2135.64 1817.06 2126.34 1985.49C2125.04 2009.12 2113.11 2030.62 2094.01 2044.58L1937.24 2159.14C1909.76 2179.22 1870.8 2158.05 1872.27 2124.04C1881.93 1900.99 1893.35 1298.74 1757 979.409C1748.33 959.103 1724.25 951.008 1705.34 962.415C1521.23 1073.5 1343.29 1325.72 1269.43 1438.8C1252.85 1464.19 1214.46 1464.19 1197.87 1438.81C1123.88 1325.63 945.621 1073.03 761.949 962.359C743.055 950.973 719.005 959.073 710.339 979.359C574.004 1298.48 585.744 1898.5 595.666 2122.6C597.183 2156.86 557.701 2177.96 530.259 2157.4L376.544 2042.22C357.876 2028.23 346.272 2007.24 344.946 1983.95C335.054 1810.2 299.218 1058.88 399.977 767.988C403.33 758.31 410.406 750.762 419.926 746.982Z" fill="#00FF41"/>
<path d="M1233.66 810.29C1233.66 810.29 1716.75 694.535 2033.9 749.488C2047.96 751.923 2059.24 761.778 2063.37 775.431C2166.68 1117.28 2135.64 1817.06 2126.34 1985.49C2125.04 2009.12 2113.11 2030.62 2094.01 2044.58L1937.24 2159.14C1909.76 2179.22 1870.8 2158.05 1872.27 2124.04C1881.93 1900.99 1893.35 1298.74 1757 979.409C1748.33 959.103 1724.25 951.008 1705.34 962.415C1521.23 1073.5 1343.29 1325.72 1269.43 1438.8C1252.85 1464.19 1214.46 1464.19 1197.87 1438.81C1123.88 1325.63 945.621 1073.03 761.949 962.359C743.055 950.973 719.005 959.073 710.339 979.359C574.004 1298.48 585.744 1898.5 595.666 2122.6C597.183 2156.86 557.701 2177.96 530.259 2157.4L376.544 2042.22C357.876 2028.23 346.272 2007.24 344.946 1983.95C335.054 1810.2 299.218 1058.88 399.977 767.988C403.33 758.31 410.406 750.762 419.926 746.982C547.689 696.253 734.769 745.845 1193.73 636.571C1215.59 631.367 1237.64 644.964 1239.31 667.371C1244.26 733.526 1233.66 810.29 1233.66 810.29ZM1233.66 810.29V943.141" stroke="#003331" stroke-width="20"/>
</g>
<defs>
<filter id="filter0_d_2025_41" x="494.441" y="1592.21" width="1458.34" height="740.074" filterUnits="userSpaceOnUse" color-interpolation-filters="sRGB">
<feFlood flood-opacity="0" result="BackgroundImageFix"/>
<feColorMatrix in="SourceAlpha" type="matrix" values="0 0 0 0 0 0 0 0 0 0 0 0 0 0 0 0 0 0 127 0" result="hardAlpha"/>
<feOffset dx="24" dy="-31"/>
<feGaussianBlur stdDeviation="2"/>
<feComposite in2="hardAlpha" operator="out"/>
<feColorMatrix type="matrix" values="0 0 0 0 0 0 0 0 0 1 0 0 0 0 0.254902 0 0 0 0.33 0"/>
<feBlend mode="normal" in2="BackgroundImageFix" result="effect1_dropShadow_2025_41"/>
<feBlend mode="normal" in="SourceGraphic" in2="effect1_dropShadow_2025_41" result="shape"/>
</filter>
<filter id="filter1_d_2025_41" x="320.641" y="597.485" width="1851.36" height="1579.49" filterUnits="userSpaceOnUse" color-interpolation-filters="sRGB">
<feFlood flood-opacity="0" result="BackgroundImageFix"/>
<feColorMatrix in="SourceAlpha" type="matrix" values="0 0 0 0 0 0 0 0 0 0 0 0 0 0 0 0 0 0 127 0" result="hardAlpha"/>
<feOffset dx="20" dy="-24"/>
<feGaussianBlur stdDeviation="2"/>
<feComposite in2="hardAlpha" operator="out"/>
<feColorMatrix type="matrix" values="0 0 0 0 1 0 0 0 0 0.682353 0 0 0 0 0.258824 0 0 0 1 0"/>
<feBlend mode="normal" in2="BackgroundImageFix" result="effect1_dropShadow_2025_41"/>
<feBlend mode="normal" in="SourceGraphic" in2="effect1_dropShadow_2025_41" result="shape"/>
</filter>
</defs>
</svg>
