<svg width="2468" height="2815" viewBox="0 0 2468 2815" fill="none" xmlns="http://www.w3.org/2000/svg">
<circle cx="1234" cy="1391.83" r="1139.5" fill="#044542" fill-opacity="0.22" stroke="#003331" stroke-width="35"/>
<path d="M579.936 864.713C682.294 825.87 832.536 863.562 1194.1 778.5C1215.97 773.354 1237.86 787.007 1239.03 809.446C1241.71 860.874 1233.97 916.929 1233.97 916.929C1233.97 916.929 1619.48 824.554 1875.55 867.096C1889.62 869.434 1901 879.409 1905.04 893.089C1985.56 1166.04 1962.84 1712.13 1954.97 1858.65C1953.7 1882.27 1941.78 1903.6 1922.68 1917.56L1815.35 1996C1787.86 2016.08 1748.83 1995.04 1750.17 1961.03C1757.65 1771.16 1763.21 1312.35 1659.38 1060.45C1650.96 1040.04 1626.86 1032.06 1608.15 1043.78C1467.52 1131.87 1332.41 1319.18 1270 1413.42C1253.25 1438.7 1214.66 1438.71 1197.91 1413.43C1135.4 1319.1 1000.07 1131.53 859.76 1043.73C841.059 1032.03 816.987 1040.02 808.576 1060.41C704.822 1311.96 710.549 1768.69 718.231 1959.45C719.611 1993.71 680.06 2014.81 652.619 1994.25L547.725 1915.66C529.056 1901.67 517.44 1880.49 516.145 1857.19C507.69 1705.21 481.174 1118.74 559.973 885.7C563.254 875.997 570.359 868.347 579.936 864.713Z" fill="#004D46"/>
<path d="M1233.97 916.929C1233.97 916.929 1619.48 824.554 1875.55 867.096C1889.62 869.434 1901 879.409 1905.04 893.089C1985.56 1166.04 1962.84 1712.13 1954.97 1858.65C1953.7 1882.27 1941.78 1903.6 1922.68 1917.56L1815.35 1996C1787.86 2016.08 1748.83 1995.04 1750.17 1961.03C1757.65 1771.16 1763.21 1312.35 1659.38 1060.45C1650.96 1040.04 1626.86 1032.06 1608.15 1043.78C1467.52 1131.87 1332.41 1319.18 1270 1413.42C1253.25 1438.7 1214.66 1438.71 1197.91 1413.43C1135.4 1319.1 1000.07 1131.53 859.76 1043.73C841.059 1032.03 816.987 1040.02 808.576 1060.41C704.822 1311.96 710.549 1768.69 718.231 1959.45C719.611 1993.71 680.06 2014.81 652.619 1994.25L547.725 1915.66C529.056 1901.67 517.44 1880.49 516.145 1857.19C507.69 1705.21 481.174 1118.74 559.973 885.7C563.254 875.997 570.359 868.347 579.936 864.713C682.294 825.87 832.536 863.562 1194.1 778.5C1215.97 773.354 1237.86 787.007 1239.03 809.446C1241.71 860.874 1233.97 916.929 1233.97 916.929ZM1233.97 916.929V1024.17" stroke="#003331" stroke-width="20"/>
<rect x="1293.77" y="1136.06" width="119.548" height="119.548" rx="7" transform="rotate(90 1293.77 1136.06)" stroke="white" stroke-width="2"/>
<path d="M1204.18 1109.83C1205.28 1109.83 1206.18 1110.72 1206.18 1111.83L1206.18 1121.74C1206.18 1122.85 1205.28 1123.74 1204.18 1123.74L1201.85 1123.74C1200.75 1123.74 1199.85 1122.85 1199.85 1121.74L1199.85 1111.83C1199.85 1110.72 1200.75 1109.83 1201.85 1109.83L1204.18 1109.83Z" fill="#FFA61C"/>
<path d="M1275 1109.83C1276.1 1109.83 1277 1110.72 1277 1111.83L1277 1121.74C1277 1122.85 1276.1 1123.74 1275 1123.74L1272.68 1123.74C1271.57 1123.74 1270.68 1122.85 1270.68 1121.74L1270.68 1111.83C1270.68 1110.72 1271.57 1109.83 1272.68 1109.83L1275 1109.83Z" fill="#FFA61C"/>
<path d="M1195.32 1109.83C1196.43 1109.83 1197.32 1110.72 1197.32 1111.83L1197.32 1121.74C1197.32 1122.85 1196.43 1123.74 1195.32 1123.74L1193 1123.74C1191.9 1123.74 1191 1122.85 1191 1121.74L1191 1111.83C1191 1110.72 1191.9 1109.83 1193 1109.83L1195.32 1109.83Z" fill="#FFA61C"/>
<path d="M1266.14 1109.83C1267.25 1109.83 1268.14 1110.72 1268.14 1111.83L1268.14 1121.74C1268.14 1122.85 1267.25 1123.74 1266.14 1123.74L1263.82 1123.74C1262.72 1123.74 1261.82 1122.85 1261.82 1121.74L1261.82 1111.83C1261.82 1110.72 1262.72 1109.83 1263.82 1109.83L1266.14 1109.83Z" fill="#FFA61C"/>
<path d="M1186.47 1109.83C1187.57 1109.83 1188.47 1110.72 1188.47 1111.83L1188.47 1121.74C1188.47 1122.85 1187.57 1123.74 1186.47 1123.74L1184.15 1123.74C1183.04 1123.74 1182.15 1122.85 1182.15 1121.74L1182.15 1111.83C1182.15 1110.72 1183.04 1109.83 1184.15 1109.83L1186.47 1109.83Z" fill="#FFA61C"/>
<path d="M1257.29 1109.83C1258.4 1109.83 1259.29 1110.72 1259.29 1111.83L1259.29 1121.74C1259.29 1122.85 1258.4 1123.74 1257.29 1123.74L1254.97 1123.74C1253.86 1123.74 1252.97 1122.85 1252.97 1121.74L1252.97 1111.83C1252.97 1110.72 1253.86 1109.83 1254.97 1109.83L1257.29 1109.83Z" fill="#FFA61C"/>
<path d="M1177.62 1109.83C1178.72 1109.83 1179.62 1110.72 1179.62 1111.83L1179.62 1121.74C1179.62 1122.85 1178.72 1123.74 1177.62 1123.74L1175.29 1123.74C1174.19 1123.74 1173.29 1122.85 1173.29 1121.74L1173.29 1111.83C1173.29 1110.72 1174.19 1109.83 1175.29 1109.83L1177.62 1109.83Z" fill="#FFA61C"/>
<path d="M1248.44 1109.83C1249.55 1109.83 1250.44 1110.72 1250.44 1111.83L1250.44 1121.74C1250.44 1122.85 1249.55 1123.74 1248.44 1123.74L1246.12 1123.74C1245.01 1123.74 1244.12 1122.85 1244.12 1121.74L1244.12 1111.83C1244.12 1110.72 1245.01 1109.83 1246.12 1109.83L1248.44 1109.83Z" fill="#FFA61C"/>
<path d="M1239.59 1109.83C1240.69 1109.83 1241.59 1110.72 1241.59 1111.83L1241.59 1121.74C1241.59 1122.85 1240.69 1123.74 1239.59 1123.74L1237.26 1123.74C1236.16 1123.74 1235.26 1122.85 1235.26 1121.74L1235.26 1111.83C1235.26 1110.72 1236.16 1109.83 1237.26 1109.83L1239.59 1109.83Z" fill="#FFA61C"/>
<path d="M1230.73 1109.83C1231.84 1109.83 1232.73 1110.72 1232.73 1111.83L1232.73 1121.74C1232.73 1122.85 1231.84 1123.74 1230.73 1123.74L1228.41 1123.74C1227.31 1123.74 1226.41 1122.85 1226.41 1121.74L1226.41 1111.83C1226.41 1110.72 1227.31 1109.83 1228.41 1109.83L1230.73 1109.83Z" fill="#FFA61C"/>
<path d="M1221.88 1109.83C1222.99 1109.83 1223.88 1110.72 1223.88 1111.83L1223.88 1121.74C1223.88 1122.85 1222.99 1123.74 1221.88 1123.74L1219.56 1123.74C1218.45 1123.74 1217.56 1122.85 1217.56 1121.74L1217.56 1111.83C1217.56 1110.72 1218.45 1109.83 1219.56 1109.83L1221.88 1109.83Z" fill="#FFA61C"/>
<path d="M1292.71 1109.83C1293.81 1109.83 1294.71 1110.72 1294.71 1111.83L1294.71 1121.74C1294.71 1122.85 1293.81 1123.74 1292.71 1123.74L1290.38 1123.74C1289.28 1123.74 1288.38 1122.85 1288.38 1121.74L1288.38 1111.83C1288.38 1110.72 1289.28 1109.83 1290.38 1109.83L1292.71 1109.83Z" fill="#FFA61C"/>
<path d="M1213.03 1109.83C1214.13 1109.83 1215.03 1110.72 1215.03 1111.83L1215.03 1121.74C1215.03 1122.85 1214.13 1123.74 1213.03 1123.74L1210.7 1123.74C1209.6 1123.74 1208.7 1122.85 1208.7 1121.74L1208.7 1111.83C1208.7 1110.72 1209.6 1109.83 1210.7 1109.83L1213.03 1109.83Z" fill="#FFA61C"/>
<path d="M1283.85 1109.83C1284.96 1109.83 1285.85 1110.72 1285.85 1111.83L1285.85 1121.74C1285.85 1122.85 1284.96 1123.74 1283.85 1123.74L1281.53 1123.74C1280.42 1123.74 1279.53 1122.85 1279.53 1121.74L1279.53 1111.83C1279.53 1110.72 1280.42 1109.83 1281.53 1109.83L1283.85 1109.83Z" fill="#FFA61C"/>
<path d="M1204.18 1267.92C1205.28 1267.92 1206.18 1268.81 1206.18 1269.92L1206.18 1279.83C1206.18 1280.93 1205.28 1281.83 1204.18 1281.83L1201.85 1281.83C1200.75 1281.83 1199.85 1280.93 1199.85 1279.83L1199.85 1269.92C1199.85 1268.81 1200.75 1267.92 1201.85 1267.92L1204.18 1267.92Z" fill="#FFA61C"/>
<path d="M1275 1267.92C1276.1 1267.92 1277 1268.81 1277 1269.92L1277 1279.83C1277 1280.93 1276.1 1281.83 1275 1281.83L1272.68 1281.83C1271.57 1281.83 1270.68 1280.93 1270.68 1279.83L1270.68 1269.92C1270.68 1268.81 1271.57 1267.92 1272.68 1267.92L1275 1267.92Z" fill="#FFA61C"/>
<path d="M1195.32 1267.92C1196.43 1267.92 1197.32 1268.81 1197.32 1269.92L1197.32 1279.83C1197.32 1280.93 1196.43 1281.83 1195.32 1281.83L1193 1281.83C1191.9 1281.83 1191 1280.93 1191 1279.83L1191 1269.92C1191 1268.81 1191.9 1267.92 1193 1267.92L1195.32 1267.92Z" fill="#FFA61C"/>
<path d="M1266.14 1267.92C1267.25 1267.92 1268.14 1268.81 1268.14 1269.92L1268.14 1279.83C1268.14 1280.93 1267.25 1281.83 1266.14 1281.83L1263.82 1281.83C1262.72 1281.83 1261.82 1280.93 1261.82 1279.83L1261.82 1269.92C1261.82 1268.81 1262.72 1267.92 1263.82 1267.92L1266.14 1267.92Z" fill="#FFA61C"/>
<path d="M1186.47 1267.92C1187.57 1267.92 1188.47 1268.81 1188.47 1269.92L1188.47 1279.83C1188.47 1280.93 1187.57 1281.83 1186.47 1281.83L1184.15 1281.83C1183.04 1281.83 1182.15 1280.93 1182.15 1279.83L1182.15 1269.92C1182.15 1268.81 1183.04 1267.92 1184.15 1267.92L1186.47 1267.92Z" fill="#FFA61C"/>
<path d="M1257.29 1267.92C1258.4 1267.92 1259.29 1268.81 1259.29 1269.92L1259.29 1279.83C1259.29 1280.93 1258.4 1281.83 1257.29 1281.83L1254.97 1281.83C1253.86 1281.83 1252.97 1280.93 1252.97 1279.83L1252.97 1269.92C1252.97 1268.81 1253.86 1267.92 1254.97 1267.92L1257.29 1267.92Z" fill="#FFA61C"/>
<path d="M1177.62 1267.92C1178.72 1267.92 1179.62 1268.81 1179.62 1269.92L1179.62 1279.83C1179.62 1280.93 1178.72 1281.83 1177.62 1281.83L1175.29 1281.83C1174.19 1281.83 1173.29 1280.93 1173.29 1279.83L1173.29 1269.92C1173.29 1268.81 1174.19 1267.92 1175.29 1267.92L1177.62 1267.92Z" fill="#FFA61C"/>
<path d="M1248.44 1267.92C1249.55 1267.92 1250.44 1268.81 1250.44 1269.92L1250.44 1279.83C1250.44 1280.93 1249.55 1281.83 1248.44 1281.83L1246.12 1281.83C1245.01 1281.83 1244.12 1280.93 1244.12 1279.83L1244.12 1269.92C1244.12 1268.81 1245.01 1267.92 1246.12 1267.92L1248.44 1267.92Z" fill="#FFA61C"/>
<path d="M1239.59 1267.92C1240.69 1267.92 1241.59 1268.81 1241.59 1269.92L1241.59 1279.83C1241.59 1280.93 1240.69 1281.83 1239.59 1281.83L1237.26 1281.83C1236.16 1281.83 1235.26 1280.93 1235.26 1279.83L1235.26 1269.92C1235.26 1268.81 1236.16 1267.92 1237.26 1267.92L1239.59 1267.92Z" fill="#FFA61C"/>
<path d="M1230.73 1267.92C1231.84 1267.92 1232.73 1268.81 1232.73 1269.92L1232.73 1279.83C1232.73 1280.93 1231.84 1281.83 1230.73 1281.83L1228.41 1281.83C1227.31 1281.83 1226.41 1280.93 1226.41 1279.83L1226.41 1269.92C1226.41 1268.81 1227.31 1267.92 1228.41 1267.92L1230.73 1267.92Z" fill="#FFA61C"/>
<path d="M1221.88 1267.92C1222.99 1267.92 1223.88 1268.81 1223.88 1269.92L1223.88 1279.83C1223.88 1280.93 1222.99 1281.83 1221.88 1281.83L1219.56 1281.83C1218.45 1281.83 1217.56 1280.93 1217.56 1279.83L1217.56 1269.92C1217.56 1268.81 1218.45 1267.92 1219.56 1267.92L1221.88 1267.92Z" fill="#FFA61C"/>
<path d="M1292.71 1267.92C1293.81 1267.92 1294.71 1268.81 1294.71 1269.92L1294.71 1279.83C1294.71 1280.93 1293.81 1281.83 1292.71 1281.83L1290.38 1281.83C1289.28 1281.83 1288.38 1280.93 1288.38 1279.83L1288.38 1269.92C1288.38 1268.81 1289.28 1267.92 1290.38 1267.92L1292.71 1267.92Z" fill="#FFA61C"/>
<path d="M1213.03 1267.92C1214.13 1267.92 1215.03 1268.81 1215.03 1269.92L1215.03 1279.83C1215.03 1280.93 1214.13 1281.83 1213.03 1281.83L1210.7 1281.83C1209.6 1281.83 1208.7 1280.93 1208.7 1279.83L1208.7 1269.92C1208.7 1268.81 1209.6 1267.92 1210.7 1267.92L1213.03 1267.92Z" fill="#FFA61C"/>
<path d="M1283.85 1267.92C1284.96 1267.92 1285.85 1268.81 1285.85 1269.92L1285.85 1279.83C1285.85 1280.93 1284.96 1281.83 1283.85 1281.83L1281.53 1281.83C1280.42 1281.83 1279.53 1280.93 1279.53 1279.83L1279.53 1269.92C1279.53 1268.81 1280.42 1267.92 1281.53 1267.92L1283.85 1267.92Z" fill="#FFA61C"/>
<path d="M1306.09 1225.65C1306.09 1224.55 1306.99 1223.65 1308.09 1223.65H1318C1319.11 1223.65 1320 1224.55 1320 1225.65V1227.98C1320 1229.08 1319.11 1229.98 1318 1229.98H1308.09C1306.99 1229.98 1306.09 1229.08 1306.09 1227.98V1225.65Z" fill="#FFA61C"/>
<path d="M1306.09 1154.83C1306.09 1153.72 1306.99 1152.83 1308.09 1152.83H1318C1319.11 1152.83 1320 1153.72 1320 1154.83V1157.15C1320 1158.26 1319.11 1159.15 1318 1159.15H1308.09C1306.99 1159.15 1306.09 1158.26 1306.09 1157.15V1154.83Z" fill="#FFA61C"/>
<path d="M1306.09 1234.51C1306.09 1233.4 1306.99 1232.51 1308.09 1232.51H1318C1319.11 1232.51 1320 1233.4 1320 1234.51V1236.83C1320 1237.93 1319.11 1238.83 1318 1238.83H1308.09C1306.99 1238.83 1306.09 1237.93 1306.09 1236.83V1234.51Z" fill="#FFA61C"/>
<path d="M1306.09 1163.68C1306.09 1162.58 1306.99 1161.68 1308.09 1161.68H1318C1319.11 1161.68 1320 1162.58 1320 1163.68V1166.01C1320 1167.11 1319.11 1168.01 1318 1168.01H1308.09C1306.99 1168.01 1306.09 1167.11 1306.09 1166.01V1163.68Z" fill="#FFA61C"/>
<path d="M1306.09 1243.36C1306.09 1242.25 1306.99 1241.36 1308.09 1241.36H1318C1319.11 1241.36 1320 1242.25 1320 1243.36V1245.68C1320 1246.79 1319.11 1247.68 1318 1247.68H1308.09C1306.99 1247.68 1306.09 1246.79 1306.09 1245.68V1243.36Z" fill="#FFA61C"/>
<path d="M1306.09 1172.53C1306.09 1171.43 1306.99 1170.53 1308.09 1170.53H1318C1319.11 1170.53 1320 1171.43 1320 1172.53V1174.86C1320 1175.96 1319.11 1176.86 1318 1176.86H1308.09C1306.99 1176.86 1306.09 1175.96 1306.09 1174.86V1172.53Z" fill="#FFA61C"/>
<path d="M1306.09 1252.21C1306.09 1251.11 1306.99 1250.21 1308.09 1250.21H1318C1319.11 1250.21 1320 1251.11 1320 1252.21V1254.53C1320 1255.64 1319.11 1256.53 1318 1256.53H1308.09C1306.99 1256.53 1306.09 1255.64 1306.09 1254.53V1252.21Z" fill="#FFA61C"/>
<path d="M1306.09 1181.39C1306.09 1180.28 1306.99 1179.39 1308.09 1179.39H1318C1319.11 1179.39 1320 1180.28 1320 1181.39V1183.71C1320 1184.82 1319.11 1185.71 1318 1185.71H1308.09C1306.99 1185.71 1306.09 1184.82 1306.09 1183.71V1181.39Z" fill="#FFA61C"/>
<path d="M1306.09 1190.24C1306.09 1189.14 1306.99 1188.24 1308.09 1188.24H1318C1319.11 1188.24 1320 1189.14 1320 1190.24V1192.56C1320 1193.67 1319.11 1194.56 1318 1194.56H1308.09C1306.99 1194.56 1306.09 1193.67 1306.09 1192.56V1190.24Z" fill="#FFA61C"/>
<path d="M1306.09 1199.09C1306.09 1197.99 1306.99 1197.09 1308.09 1197.09H1318C1319.11 1197.09 1320 1197.99 1320 1199.09V1201.42C1320 1202.52 1319.11 1203.42 1318 1203.42H1308.09C1306.99 1203.42 1306.09 1202.52 1306.09 1201.42V1199.09Z" fill="#FFA61C"/>
<path d="M1306.09 1207.95C1306.09 1206.84 1306.99 1205.95 1308.09 1205.95H1318C1319.11 1205.95 1320 1206.84 1320 1207.95V1210.27C1320 1211.37 1319.11 1212.27 1318 1212.27H1308.09C1306.99 1212.27 1306.09 1211.37 1306.09 1210.27V1207.95Z" fill="#FFA61C"/>
<path d="M1306.09 1137.12C1306.09 1136.02 1306.99 1135.12 1308.09 1135.12H1318C1319.11 1135.12 1320 1136.02 1320 1137.12V1139.45C1320 1140.55 1319.11 1141.45 1318 1141.45H1308.09C1306.99 1141.45 1306.09 1140.55 1306.09 1139.45V1137.12Z" fill="#FFA61C"/>
<path d="M1306.09 1216.8C1306.09 1215.69 1306.99 1214.8 1308.09 1214.8H1318C1319.11 1214.8 1320 1215.69 1320 1216.8V1219.12C1320 1220.23 1319.11 1221.12 1318 1221.12H1308.09C1306.99 1221.12 1306.09 1220.23 1306.09 1219.12V1216.8Z" fill="#FFA61C"/>
<path d="M1306.09 1145.98C1306.09 1144.87 1306.99 1143.98 1308.09 1143.98H1318C1319.11 1143.98 1320 1144.87 1320 1145.98V1148.3C1320 1149.4 1319.11 1150.3 1318 1150.3H1308.09C1306.99 1150.3 1306.09 1149.4 1306.09 1148.3V1145.98Z" fill="#FFA61C"/>
<path d="M1148 1225.65C1148 1224.55 1148.9 1223.65 1150 1223.65H1159.91C1161.02 1223.65 1161.91 1224.55 1161.91 1225.65V1227.98C1161.91 1229.08 1161.02 1229.98 1159.91 1229.98H1150C1148.9 1229.98 1148 1229.08 1148 1227.98V1225.65Z" fill="#FFA61C"/>
<path d="M1148 1154.83C1148 1153.72 1148.9 1152.83 1150 1152.83H1159.91C1161.02 1152.83 1161.91 1153.72 1161.91 1154.83V1157.15C1161.91 1158.26 1161.02 1159.15 1159.91 1159.15H1150C1148.9 1159.15 1148 1158.26 1148 1157.15V1154.83Z" fill="#FFA61C"/>
<path d="M1148 1234.51C1148 1233.4 1148.9 1232.51 1150 1232.51H1159.91C1161.02 1232.51 1161.91 1233.4 1161.91 1234.51V1236.83C1161.91 1237.93 1161.02 1238.83 1159.91 1238.83H1150C1148.9 1238.83 1148 1237.93 1148 1236.83V1234.51Z" fill="#FFA61C"/>
<path d="M1148 1163.68C1148 1162.58 1148.9 1161.68 1150 1161.68H1159.91C1161.02 1161.68 1161.91 1162.58 1161.91 1163.68V1166.01C1161.91 1167.11 1161.02 1168.01 1159.91 1168.01H1150C1148.9 1168.01 1148 1167.11 1148 1166.01V1163.68Z" fill="#FFA61C"/>
<path d="M1148 1243.36C1148 1242.25 1148.9 1241.36 1150 1241.36H1159.91C1161.02 1241.36 1161.91 1242.25 1161.91 1243.36V1245.68C1161.91 1246.79 1161.02 1247.68 1159.91 1247.68H1150C1148.9 1247.68 1148 1246.79 1148 1245.68V1243.36Z" fill="#FFA61C"/>
<path d="M1148 1172.53C1148 1171.43 1148.9 1170.53 1150 1170.53H1159.91C1161.02 1170.53 1161.91 1171.43 1161.91 1172.53V1174.86C1161.91 1175.96 1161.02 1176.86 1159.91 1176.86H1150C1148.9 1176.86 1148 1175.96 1148 1174.86V1172.53Z" fill="#FFA61C"/>
<path d="M1148 1252.21C1148 1251.11 1148.9 1250.21 1150 1250.21H1159.91C1161.02 1250.21 1161.91 1251.11 1161.91 1252.21V1254.53C1161.91 1255.64 1161.02 1256.53 1159.91 1256.53H1150C1148.9 1256.53 1148 1255.64 1148 1254.53V1252.21Z" fill="#FFA61C"/>
<path d="M1148 1181.39C1148 1180.28 1148.9 1179.39 1150 1179.39H1159.91C1161.02 1179.39 1161.91 1180.28 1161.91 1181.39V1183.71C1161.91 1184.82 1161.02 1185.71 1159.91 1185.71H1150C1148.9 1185.71 1148 1184.82 1148 1183.71V1181.39Z" fill="#FFA61C"/>
<path d="M1148 1190.24C1148 1189.14 1148.9 1188.24 1150 1188.24H1159.91C1161.02 1188.24 1161.91 1189.14 1161.91 1190.24V1192.56C1161.91 1193.67 1161.02 1194.56 1159.91 1194.56H1150C1148.9 1194.56 1148 1193.67 1148 1192.56V1190.24Z" fill="#FFA61C"/>
<path d="M1148 1199.09C1148 1197.99 1148.9 1197.09 1150 1197.09H1159.91C1161.02 1197.09 1161.91 1197.99 1161.91 1199.09V1201.42C1161.91 1202.52 1161.02 1203.42 1159.91 1203.42H1150C1148.9 1203.42 1148 1202.52 1148 1201.42V1199.09Z" fill="#FFA61C"/>
<path d="M1148 1207.95C1148 1206.84 1148.9 1205.95 1150 1205.95H1159.91C1161.02 1205.95 1161.91 1206.84 1161.91 1207.95V1210.27C1161.91 1211.37 1161.02 1212.27 1159.91 1212.27H1150C1148.9 1212.27 1148 1211.37 1148 1210.27V1207.95Z" fill="#FFA61C"/>
<path d="M1148 1137.12C1148 1136.02 1148.9 1135.12 1150 1135.12H1159.91C1161.02 1135.12 1161.91 1136.02 1161.91 1137.12V1139.45C1161.91 1140.55 1161.02 1141.45 1159.91 1141.45H1150C1148.9 1141.45 1148 1140.55 1148 1139.45V1137.12Z" fill="#FFA61C"/>
<path d="M1148 1216.8C1148 1215.69 1148.9 1214.8 1150 1214.8H1159.91C1161.02 1214.8 1161.91 1215.69 1161.91 1216.8V1219.12C1161.91 1220.23 1161.02 1221.12 1159.91 1221.12H1150C1148.9 1221.12 1148 1220.23 1148 1219.12V1216.8Z" fill="#FFA61C"/>
<path d="M1148 1145.98C1148 1144.87 1148.9 1143.98 1150 1143.98H1159.91C1161.02 1143.98 1161.91 1144.87 1161.91 1145.98V1148.3C1161.91 1149.4 1161.02 1150.3 1159.91 1150.3H1150C1148.9 1150.3 1148 1149.4 1148 1148.3V1145.98Z" fill="#FFA61C"/>
<path d="M1183.02 1147.38C1181.62 1147.38 1180.49 1146.25 1180.49 1144.85C1180.49 1143.45 1181.62 1142.32 1183.02 1142.32C1184.42 1142.32 1185.55 1143.45 1185.55 1144.85C1185.55 1146.25 1184.42 1147.38 1183.02 1147.38Z" fill="white"/>
<circle cx="26.6875" cy="26.6875" r="26.6875" transform="matrix(-1 0 0 1 1192.38 1820.45)" fill="#FFA61C"/>
<circle cx="12.6263" cy="12.6263" r="12.6263" transform="matrix(-1 0 0 1 1178.32 1834.52)" fill="#D9D9D9"/>
<circle cx="26.6875" cy="26.6875" r="26.6875" transform="matrix(-1 0 0 1 1261 1820.45)" fill="#FFA61C"/>
<circle cx="12.6263" cy="12.6263" r="12.6263" transform="matrix(-1 0 0 1 1246.94 1834.52)" fill="#D9D9D9"/>
<circle cx="26.6875" cy="26.6875" r="26.6875" transform="matrix(-1 0 0 1 1329.62 1820.45)" fill="#FFA61C"/>
<circle cx="12.6263" cy="12.6263" r="12.6263" transform="matrix(-1 0 0 1 1315.57 1834.52)" fill="#D9D9D9"/>
<circle cx="26.6875" cy="26.6875" r="26.6875" transform="matrix(-1 0 0 1 1192.38 1751.83)" fill="#FFA61C"/>
<circle cx="12.6263" cy="12.6263" r="12.6263" transform="matrix(-1 0 0 1 1178.32 1765.89)" fill="#D9D9D9"/>
<circle cx="26.6875" cy="26.6875" r="26.6875" transform="matrix(-1 0 0 1 1261 1751.83)" fill="#FFA61C"/>
<circle cx="12.6263" cy="12.6263" r="12.6263" transform="matrix(-1 0 0 1 1246.94 1765.89)" fill="#D9D9D9"/>
<circle cx="26.6875" cy="26.6875" r="26.6875" transform="matrix(-1 0 0 1 1329.62 1751.83)" fill="#FFA61C"/>
<circle cx="12.6263" cy="12.6263" r="12.6263" transform="matrix(-1 0 0 1 1315.57 1765.89)" fill="#D9D9D9"/>
</svg>
